PathFileType	4	(X/Y/Z)	Patient4_TMGait_0pt2_03_right_21.trc.trc
DataRate	CameraRate	NumFrames	NumMarkers	Units	OrigDataRate	OrigDataStartFrame	OrigNumFrames
48.780487804878	48.780487804878	4	33	mm	48.780487804878	124	       141
Frame#	Time	Sacral			L.Shoulder			Chest			R.Shoulder			Neck			R.ASIS			L.ASIS			R.Thigh.Superior			R.Thigh.Lateral			R.Thigh.Inferior			R.Patella			L.Thigh.Superior			L.Thigh.Lateral			L.Thigh.Inferior			L.Patella			L.Shank.Superior			L.Shank.Lateral			L.Shank.Inferior			R.Shank.Superior			R.Shank.Lateral			R.Shank.Inferior			R.Heel			R.Midfoot.Superior			R.Midfoot.Lateral			R.Toe			L.Heel			L.Midfoot.Lateral			L.Midfoot.Superior			L.Toe			L.Elbow			L.Wrist			R.Elbow			R.Wrist			
		X1	Y1	Z1	X2	Y2	Z2	X3	Y3	Z3	X4	Y4	Z4	X5	Y5	Z5	X6	Y6	Z6	X7	Y7	Z7	X8	Y8	Z8	X9	Y9	Z9	X10	Y10	Z10	X11	Y11	Z11	X12	Y12	Z12	X13	Y13	Z13	X14	Y14	Z14	X15	Y15	Z15	X16	Y16	Z16	X17	Y17	Z17	X18	Y18	Z18	X19	Y19	Z19	X20	Y20	Z20	X21	Y21	Z21	X22	Y22	Z22	X23	Y23	Z23	X24	Y24	Z24	X25	Y25	Z25	X26	Y26	Z26	X27	Y27	Z27	X28	Y28	Z28	X29	Y29	Z29	X30	Y30	Z30	X31	Y31	Z31	X32	Y32	Z32	X33	Y33	Z33	

124	47.541500000000	856.808242621559	1015.451759725597	426.151742061184	1096.876249044001	1432.744965209833	293.803517004692	1142.580804383535	1367.130198397398	477.509647020310	1015.497805331935	1449.532633089996	617.268031543598	1026.697518681723	1497.353380457741	439.042802955134	1047.690953800513	946.577563983338	599.238047701047	1100.659825748715	960.036128798259	330.046775111801	1108.950915237205	751.957565489500	574.744501417273	1033.417180743975	638.581040675411	633.236578035298	1120.479692101315	590.910819384787	560.147887452481	1131.825107648901	508.043231750809	571.031685044204	1103.443191690273	733.385472919389	356.496614636614	999.760744140994	625.736269883140	267.115351076913	1063.566719836257	544.656201276203	344.717667185707	1050.008324915260	479.375982237339	350.056645642441	1020.720105146959	411.049916881914	335.598008545511	929.005404437793	304.695271778462	273.523406491748	961.997109946295	188.839210537582	346.644012956937	1112.129787677639	417.859036615112	583.271986863065	1049.463505345445	311.470254082241	651.119373567008	1105.720936381309	217.159674667902	597.664614306671	989.026839119258	42.306963503327	580.034515837405	1160.241717620847	101.827569217066	609.777322701164	1076.728086632297	35.551903127461	648.574213030198	1282.194155108176	55.717386245301	629.246284628783	822.129260302362	38.435847990840	378.241341808793	898.094694177349	35.257873705031	299.127048876358	981.610551476369	95.857511479343	329.395735654641	1110.315830480687	42.052912693428	302.803841471121	1257.378825014810	1153.734596564979	144.209936396029	1502.961627611486	1209.948172591066	194.218962490130	831.731024197375	1151.906242258230	690.048480416155	790.310309975886	891.370312747373	687.841933224648	
125	47.562000000000	858.862177182402	1014.269376928838	431.697347025191	1095.990831758708	1432.331227384484	299.718269425765	1143.258549084009	1366.791841088142	483.095570216943	1016.513286181944	1448.387279118783	623.749137698397	1026.600808250720	1496.603487055149	445.319680190690	1050.575758856508	944.850706915243	603.756271186227	1102.530677644852	960.032679552639	334.492694067501	1111.128844412277	749.605217506024	577.541784461776	1034.611955197603	636.209651626408	634.983445955307	1121.461768379830	588.867901944775	561.531789540842	1131.074701520201	505.854619834511	571.345042911054	1103.303841776293	732.127228605279	358.965894988322	997.264158719418	626.272018823468	269.837931889412	1060.267576103028	543.917876449228	346.420833796750	1045.972820841027	479.198098969337	351.559816323158	1016.641573351428	411.292285781985	336.870770852436	924.457810532048	305.385658974770	274.530070648195	957.800484222810	189.008533226596	346.905516766063	1111.514019376145	415.474712960809	583.456705332495	1048.701546392958	309.228038292897	650.969948836417	1103.557101108490	215.042784136460	596.501201182772	985.354146605783	42.230053774232	578.412691936516	1156.542218554005	100.315949276732	608.144109343024	1072.518533535543	35.717525243668	647.688605704650	1278.198227860700	53.433086074795	628.868627895766	817.974780124738	38.339229225750	378.278421747044	893.973069220032	35.209990654640	299.177052476798	977.492315934917	95.896441905027	329.324579571166	1106.186975415810	42.063793338024	302.766079720572	1255.453246285986	1152.029799070776	149.944121848146	1500.787042239797	1210.764818685248	199.696664935249	836.934793541950	1147.868192131864	698.175848065336	800.875308065688	886.475250762929	697.356763665193	
126	47.582500000000	860.932656674178	1013.420642137361	437.598852531509	1095.382243633822	1432.202055545376	305.851413980347	1144.242742217480	1366.579157478084	488.837623172942	1017.934798731403	1447.343703513035	630.478584861763	1026.747779500000	1496.056099896268	451.863425552743	1053.724391787298	943.482787787865	608.385443469880	1104.239050587393	960.167061380153	338.995918804911	1113.640479078236	747.767332023755	580.133955745884	1036.607643704928	634.393357952684	637.043203921332	1122.816507174498	587.244265125723	562.869637970025	1130.953980274037	503.913033085381	571.858325892272	1102.922167210791	730.967505696232	361.601837780964	994.514263255574	626.900703571871	272.846427206113	1056.904293487413	543.300299515178	348.330372674295	1041.941661041834	479.094484291469	353.267797530395	1012.535665358354	411.630146356940	338.323769889612	919.807231584264	306.202977674312	275.729970965909	953.586368926216	189.232207723585	347.219997058576	1111.132291476358	413.384892607194	583.818721907476	1047.992310278680	307.500500790971	651.238104349560	1100.906138975548	213.217794732302	595.612706538258	980.643694156497	42.451566440906	577.316813473351	1151.914468395845	99.166674181303	606.866129245573	1067.408927473046	36.105880730864	647.189571409455	1273.338925862554	51.485733500473	628.608836092976	813.827009496714	38.253847709156	378.319250652443	889.868882461219	35.176707154013	299.256574940078	973.401417277305	95.945243513604	329.262174712538	1102.078890958540	42.052884536402	302.729714084561	1252.787912475753	1149.917271447419	155.798655132018	1498.481100963549	1209.391201707457	205.113006060335	842.388290692943	1144.110188721422	706.748091462617	812.116300306840	881.955464327679	707.742069813623	
127	47.603000000000	862.931785057490	1012.925124464922	443.843538549734	1095.096929800883	1432.336819499278	312.091048240560	1145.525900557375	1366.469264150980	494.627546656355	1019.775251439629	1446.427637400435	637.326673832616	1027.175173898285	1495.721115725147	458.543528156281	1057.017272219528	942.515120580071	613.122615812781	1105.685990001034	960.398886034549	343.532850855327	1116.264716479598	746.431730693822	582.663764694434	1039.110426434404	633.129620774019	639.525455921607	1124.282362453281	586.019290336896	564.312295035847	1131.213839177424	502.279206828215	572.696441940492	1102.258701596756	729.947363127401	364.478066726164	991.592714466740	627.601893329090	276.152329871172	1053.613450427793	542.809426806103	350.459188275907	1038.076652165245	479.030611632862	355.179357038485	1008.538419824316	412.023931858071	339.960339703600	915.148790982481	307.143257003571	277.144553599327	949.406819509225	189.500042095746	347.593098311928	1110.855863318400	411.652327340786	584.466433346089	1047.321329036153	306.220742100574	651.971167381842	1097.999471005809	211.708205796645	595.078030260894	975.438465740047	42.786868015456	576.712809090193	1146.854456613952	98.340719953883	605.983730699837	1061.945294215092	36.550164806636	647.025562509860	1268.137428542765	49.930535496605	628.464668816570	809.690628272018	38.224902724450	378.362492339573	885.784343578247	35.183417105782	299.364603174030	969.348288618376	96.005711019827	329.215627820216	1097.993099110478	42.003170289514	302.697191989425	1249.462557391683	1147.410097372650	161.771884041068	1496.101276394109	1205.663247489424	210.491250903381	848.034063952054	1140.730123838561	715.653776765379	823.966855883104	877.950109752770	718.827056279088	
